<svg preserveAspectRatio="none" width="100%" height="100%" overflow="visible" style="display: block;" viewBox="0 0 13 13" fill="none" xmlns="http://www.w3.org/2000/svg">
<g id="fluent:ios-arrow-24-filled">
<path id="Vector" d="M8.53979 1.91387C8.58866 1.86216 8.62686 1.80133 8.65222 1.73485C8.67758 1.66837 8.68959 1.59755 8.68758 1.52643C8.68557 1.45531 8.66957 1.38528 8.64049 1.32034C8.61142 1.2554 8.56983 1.19682 8.51812 1.14796C8.46641 1.09909 8.40558 1.06088 8.3391 1.03553C8.27262 1.01017 8.2018 0.998151 8.13068 1.00016C8.05955 1.00218 7.98952 1.01818 7.92459 1.04725C7.85965 1.07633 7.80107 1.11791 7.7522 1.16962L3.14804 6.04462C3.05296 6.14519 2.99998 6.27835 2.99998 6.41675C2.99998 6.55515 3.05296 6.6883 3.14804 6.78887L7.7522 11.6644C7.80075 11.7173 7.85931 11.7599 7.92449 11.79C7.98967 11.82 8.06016 11.8367 8.13187 11.8393C8.20359 11.8418 8.27509 11.8301 8.34223 11.8048C8.40938 11.7795 8.47082 11.7411 8.52299 11.6918C8.57517 11.6425 8.61703 11.5834 8.64616 11.5178C8.67528 11.4522 8.69108 11.3815 8.69264 11.3098C8.69421 11.238 8.6815 11.1667 8.65526 11.0999C8.62902 11.0331 8.58977 10.9722 8.53979 10.9207L4.28662 6.41675L8.53979 1.91387Z" fill="var(--fill-0, #7B6FA6)"/>
</g>
</svg>
