<svg preserveAspectRatio="none" width="100%" height="100%" overflow="visible" style="display: block;" viewBox="0 0 13 13" fill="none" xmlns="http://www.w3.org/2000/svg">
<g id="Frame">
<path id="Vector" d="M2.70833 7.04167C2.70833 6.75435 2.82247 6.4788 3.02563 6.27563C3.2288 6.07247 3.50435 5.95833 3.79167 5.95833H9.20833C9.49565 5.95833 9.7712 6.07247 9.97437 6.27563C10.1775 6.4788 10.2917 6.75435 10.2917 7.04167V10.2917C10.2917 10.579 10.1775 10.8545 9.97437 11.0577C9.7712 11.2609 9.49565 11.375 9.20833 11.375H3.79167C3.50435 11.375 3.2288 11.2609 3.02563 11.0577C2.82247 10.8545 2.70833 10.579 2.70833 10.2917V7.04167Z" stroke="var(--stroke-0, #7B6FA6)" stroke-width="0.920833"/>
<path id="Vector_2" d="M4.33333 5.95833V3.79167C4.33333 3.21703 4.56161 2.66593 4.96793 2.2596C5.37426 1.85327 5.92536 1.625 6.5 1.625C7.07464 1.625 7.62574 1.85327 8.03206 2.2596C8.43839 2.66593 8.66667 3.21703 8.66667 3.79167V5.95833" stroke="var(--stroke-0, #7B6FA6)" stroke-width="0.920833"/>
</g>
</svg>
